<svg xmlns:inkscape="http://www.inkscape.org/namespaces/inkscape" xmlns:sodipodi="http://sodipodi.sourceforge.net/DTD/sodipodi-0.dtd" xmlns="http://www.w3.org/2000/svg" xmlns:svg="http://www.w3.org/2000/svg" version="1.0" preserveAspectRatio="xMidYMid meet" id="svg19" sodipodi:docname="Mintika_round_b.svg" inkscape:version="1.4.2 (f4327f4, 2025-05-13)" viewBox="879.1 24.59 3467.21 3467.21">
  <defs id="defs19"/>
  <sodipodi:namedview id="namedview19" pagecolor="#ffffff" bordercolor="#000000" borderopacity="0.25" inkscape:showpageshadow="2" inkscape:pageopacity="0.0" inkscape:pagecheckerboard="0" inkscape:deskcolor="#d1d1d1" inkscape:document-units="pt" inkscape:zoom="0.12200011" inkscape:cx="2946.7187" inkscape:cy="2192.621" inkscape:window-width="1440" inkscape:window-height="829" inkscape:window-x="-8" inkscape:window-y="-8" inkscape:window-maximized="1" inkscape:current-layer="g26"/>
  <g id="g26" transform="matrix(0.94949496,0,0,0.94949496,166.977,53.7754)">
    <circle style="fill:#000000;stroke-width:0.75" id="path22" cx="2575.8174" cy="1795.0802" r="1825.8181"/>
    <g transform="matrix(0.1,0,0,-0.1,0,3508)" fill="#000000" stroke="none" id="g19" style="fill:#ffffff">
      <path d="m 15110,27081 c -30,-10 -69,-26 -87,-35 -49,-26 -144,-135 -184,-212 -20,-38 -48,-91 -62,-119 -55,-107 -103,-225 -162,-400 -13,-38 -39,-110 -58,-158 -20,-49 -39,-103 -43,-120 -3,-18 -39,-133 -80,-257 -40,-124 -80,-254 -89,-290 -15,-60 -43,-148 -187,-595 -92,-287 -106,-330 -112,-360 -4,-16 -25,-79 -46,-140 -21,-60 -52,-157 -70,-215 -17,-58 -65,-211 -106,-340 -41,-129 -86,-271 -100,-315 -13,-44 -51,-161 -83,-260 -33,-99 -64,-205 -71,-235 -6,-30 -30,-113 -54,-185 -24,-71 -56,-170 -71,-220 -15,-49 -43,-135 -61,-190 -18,-55 -51,-161 -74,-235 -23,-74 -52,-166 -65,-205 -12,-38 -48,-151 -80,-250 -134,-422 -199,-624 -271,-845 -42,-129 -84,-269 -94,-310 -11,-41 -42,-142 -70,-225 -29,-82 -62,-186 -74,-230 -13,-44 -50,-159 -83,-255 -33,-96 -90,-267 -126,-380 -36,-113 -102,-320 -147,-460 -46,-140 -91,-282 -101,-315 -10,-33 -52,-166 -93,-295 -42,-129 -81,-260 -87,-290 -6,-30 -35,-127 -64,-215 -29,-88 -61,-189 -70,-225 -8,-36 -20,-76 -25,-90 -18,-51 -100,-316 -109,-355 -5,-22 -20,-78 -34,-125 -37,-125 -95,-324 -123,-415 -13,-44 -24,-87 -24,-96 0,-8 -18,-76 -40,-150 -41,-136 -102,-358 -125,-459 -14,-61 -72,-279 -109,-410 -14,-47 -34,-132 -45,-190 -11,-58 -43,-199 -71,-315 -28,-115 -66,-282 -85,-370 -18,-88 -45,-212 -60,-275 -28,-119 -33,-141 -83,-400 -17,-85 -39,-193 -50,-240 -81,-353 -235,-1242 -262,-1520 -6,-63 -18,-164 -25,-225 -38,-299 -48,-544 -49,-1120 -1,-557 0,-572 22,-670 39,-174 69,-266 92,-280 6,-4 15,-17 20,-29 13,-35 124,-103 188,-117 104,-21 236,1 317,54 47,31 163,146 208,207 22,30 62,80 88,110 25,30 53,67 60,82 8,15 44,76 80,135 65,107 239,425 239,439 0,4 29,59 64,123 35,64 67,127 71,141 4,14 55,122 112,240 57,118 108,224 113,235 5,11 29,65 53,120 25,55 48,111 52,124 4,14 39,92 76,173 38,82 69,150 69,152 0,2 26,59 59,127 32,68 80,169 106,224 61,128 124,270 140,316 7,20 40,92 73,160 33,68 95,196 137,284 43,88 104,219 137,290 33,72 68,144 78,160 9,17 25,53 35,80 10,28 24,57 30,65 7,8 20,35 29,59 9,24 38,85 64,135 26,50 61,122 77,161 17,38 41,90 54,115 13,25 34,72 46,105 24,63 169,380 275,600 34,72 102,216 150,320 48,105 109,233 135,285 25,52 57,121 71,153 13,32 54,119 89,193 36,74 65,140 65,147 0,6 33,79 73,162 41,82 91,188 112,235 104,228 165,354 346,715 108,214 203,404 212,420 8,17 34,69 56,117 22,48 60,120 84,160 24,40 48,84 53,98 9,25 42,85 102,187 18,31 67,122 109,202 72,138 114,214 188,341 18,30 51,89 75,130 23,41 59,102 80,135 20,33 56,96 79,140 39,74 131,229 191,324 14,22 65,106 114,188 123,203 319,512 349,548 13,17 48,71 78,120 29,50 100,158 156,240 57,83 144,211 194,285 51,74 102,146 114,160 12,14 42,53 66,88 111,159 158,225 214,300 33,45 77,105 98,134 21,29 52,71 70,94 18,22 41,53 52,68 11,16 42,54 69,85 26,31 76,92 109,136 34,44 104,131 156,194 53,63 110,132 127,155 17,23 53,66 80,96 28,30 60,71 72,91 12,19 45,58 74,85 29,28 84,86 122,130 126,145 523,565 586,620 8,8 76,71 150,140 139,131 315,287 461,409 46,39 109,93 139,121 72,66 144,116 200,138 25,9 70,37 100,60 70,54 250,149 313,166 39,11 58,11 102,0 89,-21 90,-24 93,-234 4,-250 -3,-295 -140,-971 -19,-98 -108,-463 -146,-600 -11,-38 -27,-101 -36,-140 -24,-102 -180,-650 -226,-795 -10,-30 -27,-86 -38,-125 -21,-73 -116,-375 -159,-505 -13,-41 -31,-104 -39,-140 -8,-36 -42,-150 -75,-255 -68,-212 -154,-482 -199,-625 -16,-52 -30,-100 -30,-106 0,-7 -20,-72 -43,-146 -63,-192 -105,-326 -117,-378 -6,-25 -29,-101 -50,-170 -53,-168 -89,-291 -110,-370 -9,-36 -44,-155 -78,-265 -33,-110 -68,-240 -77,-290 -9,-49 -36,-164 -59,-255 -59,-228 -74,-293 -91,-380 -7,-41 -22,-115 -33,-165 -73,-331 -118,-591 -152,-870 -5,-38 -13,-99 -19,-135 -15,-97 -38,-278 -54,-430 -13,-117 -13,-146 -1,-215 9,-52 13,-136 12,-245 -3,-135 0,-179 16,-240 83,-327 122,-417 227,-514 39,-36 98,-78 141,-99 62,-31 87,-37 163,-43 166,-11 327,30 469,121 31,19 66,39 79,44 52,20 301,218 420,334 85,83 268,289 295,331 13,22 44,60 67,85 23,25 48,57 55,71 7,14 68,93 135,175 112,138 230,289 344,440 25,33 72,91 104,129 31,38 103,137 159,220 56,83 124,181 152,218 28,37 67,89 86,115 19,26 53,71 75,98 23,28 49,61 58,75 10,14 32,43 50,66 17,22 73,94 124,160 51,65 126,162 168,214 41,52 86,111 99,130 27,40 116,150 216,265 38,44 136,159 217,257 334,398 539,627 678,758 44,41 120,118 170,170 169,180 317,317 379,352 34,19 94,54 135,78 119,70 176,89 259,90 84,0 120,-13 182,-65 52,-43 93,-108 115,-179 8,-27 19,-54 24,-60 17,-21 120,-412 131,-496 5,-47 24,-159 41,-250 16,-91 34,-194 39,-230 13,-95 36,-243 66,-425 14,-88 30,-191 34,-230 9,-71 27,-179 55,-340 9,-49 24,-148 35,-220 27,-196 177,-1068 200,-1165 125,-539 130,-555 256,-815 224,-461 602,-873 935,-1020 308,-136 507,-130 964,31 171,60 234,93 342,181 183,149 570,538 765,769 36,43 83,97 104,119 20,22 84,96 141,165 57,69 121,143 141,165 55,60 144,165 177,210 16,22 53,66 82,97 28,31 64,76 79,100 15,24 53,73 83,109 115,136 136,162 145,178 5,9 30,40 55,69 25,30 62,75 81,101 19,27 83,113 142,192 152,204 239,323 293,404 27,39 60,84 74,101 47,56 210,299 288,429 195,326 245,453 210,536 -35,85 -139,142 -283,156 -110,10 -243,-50 -313,-142 -14,-19 -60,-78 -101,-131 -41,-52 -91,-117 -110,-143 -19,-27 -46,-63 -61,-82 -31,-42 -166,-226 -216,-296 -155,-214 -212,-291 -239,-322 -17,-20 -38,-49 -46,-65 -8,-15 -38,-58 -67,-95 -93,-118 -215,-281 -258,-344 -60,-88 -160,-227 -213,-295 -25,-32 -58,-78 -75,-102 -16,-25 -50,-72 -75,-105 -26,-33 -64,-89 -85,-124 -21,-36 -46,-72 -54,-80 -14,-14 -123,-155 -185,-240 -11,-14 -41,-51 -67,-81 -25,-30 -77,-93 -113,-140 -81,-103 -244,-284 -323,-360 -95,-91 -302,-237 -394,-279 -66,-29 -246,-81 -319,-91 -186,-27 -361,11 -512,112 -129,86 -302,313 -365,478 -14,36 -28,70 -33,75 -29,36 -154,396 -185,535 -7,30 -28,116 -48,190 -19,74 -40,167 -46,205 -7,39 -18,97 -26,130 -7,33 -21,101 -30,150 -9,50 -22,122 -30,160 -8,39 -19,102 -24,140 -6,39 -17,115 -26,170 -8,55 -21,162 -30,237 -8,76 -17,143 -20,150 -2,7 -9,49 -15,93 -16,131 -37,278 -70,495 -17,113 -40,275 -50,360 -11,85 -33,247 -50,360 -17,113 -35,235 -40,271 -5,37 -14,78 -19,91 -5,14 -17,74 -26,134 -33,219 -156,525 -275,683 -127,168 -223,238 -413,299 -257,83 -442,82 -710,-3 -147,-47 -285,-132 -432,-265 -44,-40 -116,-105 -160,-144 -85,-75 -430,-419 -504,-502 -131,-146 -215,-242 -296,-340 -89,-108 -132,-157 -246,-284 -117,-130 -334,-390 -542,-649 -29,-35 -87,-107 -130,-160 -43,-53 -85,-104 -93,-114 -9,-10 -31,-42 -51,-70 -20,-29 -51,-68 -68,-87 -18,-19 -58,-69 -89,-110 -79,-106 -151,-201 -176,-231 -12,-14 -38,-49 -58,-77 -43,-59 -247,-323 -308,-398 -22,-28 -58,-75 -78,-105 -21,-30 -49,-70 -64,-90 -15,-20 -53,-73 -84,-117 -32,-45 -77,-103 -100,-130 -24,-27 -87,-105 -140,-174 -54,-69 -108,-136 -121,-149 -13,-13 -55,-60 -93,-104 -38,-44 -93,-105 -122,-135 -28,-30 -52,-58 -52,-62 0,-4 -42,-54 -94,-111 -109,-118 -171,-157 -254,-157 -81,0 -166,76 -183,162 -20,104 -6,519 25,728 8,52 21,147 30,210 26,181 41,252 147,695 6,28 17,77 24,110 7,33 43,177 80,320 37,143 72,280 77,305 10,45 88,340 115,435 8,28 19,77 24,110 5,33 21,96 34,140 42,136 105,356 130,450 13,50 47,167 76,260 29,94 60,200 70,238 17,62 44,150 89,287 10,31 34,109 53,175 36,122 49,163 87,270 12,33 26,76 31,95 6,19 21,64 34,100 55,152 156,470 170,537 8,40 24,99 35,132 148,440 425,1450 521,1901 5,25 22,104 38,175 16,72 32,153 36,180 4,28 13,86 21,130 23,131 44,379 44,514 0,145 -29,399 -60,516 -29,115 -70,190 -147,272 -94,100 -200,152 -367,182 -114,21 -202,14 -306,-23 -149,-53 -171,-61 -245,-95 -188,-86 -226,-112 -695,-472 -94,-72 -457,-384 -565,-484 -17,-16 -76,-70 -131,-120 -54,-49 -126,-117 -159,-150 -238,-233 -335,-331 -335,-338 0,-5 -60,-70 -134,-145 -73,-75 -164,-173 -202,-217 -37,-44 -119,-138 -181,-208 -62,-71 -143,-165 -179,-210 -124,-154 -219,-272 -259,-323 -22,-29 -65,-83 -96,-120 -55,-69 -139,-177 -269,-349 -38,-49 -101,-132 -140,-184 -39,-52 -82,-113 -96,-135 -14,-23 -51,-77 -82,-122 -275,-390 -287,-406 -465,-674 -42,-63 -83,-124 -91,-135 -43,-62 -127,-198 -135,-217 -5,-13 -33,-59 -62,-102 -30,-44 -63,-94 -74,-112 -11,-18 -42,-68 -69,-111 -77,-121 -226,-367 -290,-478 -31,-55 -80,-138 -108,-185 -109,-182 -178,-304 -178,-312 0,-4 -14,-31 -31,-60 -106,-179 -295,-523 -469,-853 -40,-77 -86,-162 -101,-190 -15,-27 -48,-90 -74,-140 -26,-49 -56,-106 -66,-125 -11,-19 -19,-38 -19,-42 0,-10 -10,-30 -190,-383 -186,-365 -200,-393 -200,-399 0,-3 -37,-81 -81,-173 -45,-93 -95,-197 -112,-233 -16,-36 -62,-132 -102,-215 -40,-82 -80,-170 -88,-195 -8,-25 -41,-99 -72,-165 -32,-66 -66,-141 -76,-168 -10,-26 -37,-82 -59,-125 -23,-42 -58,-115 -80,-162 -46,-100 -204,-437 -282,-600 -75,-155 -128,-270 -128,-275 0,-3 -18,-43 -40,-90 -22,-47 -40,-91 -40,-98 0,-8 -21,-56 -46,-108 -25,-52 -61,-132 -80,-178 -19,-46 -38,-89 -43,-95 -5,-6 -33,-65 -61,-131 -29,-66 -79,-176 -112,-245 -33,-69 -75,-161 -95,-205 -19,-44 -57,-127 -85,-185 -28,-58 -64,-136 -81,-175 -16,-38 -60,-134 -98,-213 -37,-78 -73,-160 -79,-181 -6,-22 -37,-97 -70,-166 -33,-70 -60,-132 -60,-137 0,-6 -11,-36 -24,-67 -13,-31 -40,-96 -60,-146 -21,-49 -68,-151 -105,-225 -38,-74 -72,-146 -76,-160 -4,-14 -30,-70 -57,-125 -64,-131 -114,-181 -194,-191 -38,-4 -66,-2 -92,8 l -37,14 -3,182 c -2,126 2,213 13,284 9,57 24,166 35,243 11,77 27,185 35,240 8,55 20,129 25,165 51,360 87,594 116,750 8,47 19,108 24,135 5,28 18,97 30,155 11,58 27,152 35,210 9,58 20,119 25,135 5,17 14,53 19,80 6,28 31,149 56,270 25,121 53,256 61,299 9,44 26,121 38,170 13,50 31,125 40,166 10,41 28,116 42,165 13,50 31,123 39,164 16,76 18,86 79,302 20,70 45,171 56,225 11,55 32,137 46,184 56,190 67,229 94,315 15,50 37,122 48,160 23,78 82,271 118,384 13,40 24,80 24,87 0,7 18,68 39,136 43,136 88,284 122,398 12,41 52,172 89,290 38,118 96,301 129,405 33,105 69,226 80,270 11,44 39,132 61,195 52,144 78,221 94,285 8,28 35,109 60,180 26,72 58,166 72,210 13,44 29,94 35,110 45,128 124,363 143,425 12,41 28,85 34,96 6,12 21,52 33,90 12,38 32,96 44,129 13,33 27,76 33,95 6,19 38,118 72,220 34,102 70,221 80,265 10,44 49,172 87,285 38,113 77,232 87,265 9,33 25,83 35,110 24,64 79,234 352,1085 45,140 110,341 145,445 34,105 67,214 73,243 6,29 38,130 70,225 33,95 80,237 105,317 25,80 68,215 96,300 61,191 204,655 225,730 26,99 54,190 59,199 6,9 9,20 81,291 44,169 66,243 106,360 10,30 26,88 34,129 9,41 30,113 49,160 35,92 82,218 139,371 19,52 65,173 101,268 56,147 66,183 66,237 0,103 -47,181 -149,245 -66,42 -131,48 -211,21 z" id="path1" style="fill:#ffffff"/>
      <path d="m 30409,14571 c -31,-15 -72,-40 -91,-55 -40,-30 -88,-115 -112,-195 -19,-65 -21,-196 -3,-230 45,-88 191,-128 327,-89 64,18 185,83 210,112 80,94 110,165 110,258 0,145 -115,229 -311,227 -60,0 -85,-5 -130,-28 z" id="path2" style="fill:#ffffff"/>
      <path d="m 16725,12281 c -35,-15 -57,-49 -62,-94 -9,-78 42,-137 118,-137 23,0 42,10 71,40 38,38 40,43 35,86 -6,60 -47,104 -103,110 -21,2 -48,0 -59,-5 z" id="path3" style="fill:#ffffff"/>
      <path d="m 17126,12279 c -43,-26 -65,-63 -66,-108 0,-37 5,-49 39,-82 45,-45 86,-51 139,-19 97,60 64,206 -50,216 -24,3 -52,-1 -62,-7 z" id="path4" style="fill:#ffffff"/>
      <path d="m 21095,12274 c -65,-34 -77,-53 -73,-118 4,-47 9,-62 29,-77 56,-44 136,-39 183,10 56,59 37,140 -43,181 -48,24 -57,24 -96,4 z" id="path5" style="fill:#ffffff"/>
      <path d="m 37993,11953 c -8,-26 -59,-147 -92,-223 -102,-231 -164,-375 -189,-440 -16,-41 -54,-131 -84,-200 -30,-69 -61,-143 -68,-165 -7,-22 -39,-98 -70,-170 -105,-237 -141,-327 -136,-340 3,-9 30,-12 101,-10 90,3 125,13 125,36 0,13 121,301 133,317 7,9 76,12 281,12 202,0 277,-3 289,-12 10,-7 35,-65 56,-128 43,-128 75,-205 88,-213 4,-3 60,-6 123,-8 l 115,-4 3,33 c 2,20 -3,41 -11,50 -8,10 -18,33 -22,52 -4,19 -18,55 -30,80 -32,61 -125,275 -125,286 0,5 -7,23 -16,39 -25,48 -114,255 -114,265 0,11 -113,282 -135,323 -8,16 -27,59 -41,95 -15,37 -39,94 -53,127 -15,33 -42,95 -61,138 -33,75 -54,95 -67,60 z m 114,-733 c 45,-113 83,-212 83,-221 0,-35 -21,-39 -186,-39 -134,0 -165,3 -178,16 -9,8 -16,17 -16,19 0,6 81,209 105,266 72,165 75,170 92,167 11,-2 43,-69 100,-208 z" id="path6" style="fill:#ffffff"/>
      <path d="m 18619,11953 c -3,-37 1,-1536 5,-1540 11,-11 207,-8 217,3 6,7 9,189 9,475 0,255 0,474 0,487 0,17 5,23 19,20 11,-2 121,-102 246,-223 124,-121 308,-299 407,-395 100,-96 232,-226 295,-288 68,-68 119,-112 127,-109 12,5 14,133 15,760 2,682 0,756 -14,771 -24,23 -177,23 -200,0 -15,-15 -16,-60 -10,-488 4,-293 3,-476 -3,-485 -6,-9 -19,-11 -33,-8 -13,4 -204,185 -424,402 -220,218 -452,448 -516,511 -104,103 -138,129 -140,107 z" id="path7" style="fill:#ffffff"/>
      <path d="m 29835,11948 c -3,-7 -4,-353 -3,-768 3,-877 -14,-778 139,-770 l 94,5 2,480 c 1,264 2,486 3,493 0,8 9,12 20,10 16,-3 271,-241 516,-483 471,-466 557,-546 570,-533 2,3 4,347 4,764 0,700 -1,760 -17,772 -24,18 -187,16 -202,-2 -9,-10 -11,-139 -10,-477 0,-255 1,-473 1,-483 -1,-26 -17,-40 -35,-30 -13,8 -359,346 -944,923 -62,61 -117,111 -123,111 -6,0 -13,-6 -15,-12 z" id="path8" style="fill:#ffffff"/>
      <path d="m 13817,11943 c -10,-17 -2,-1512 8,-1522 6,-6 52,-11 103,-12 72,-2 96,1 103,12 5,8 9,190 9,406 0,261 3,394 10,398 15,9 36,-11 76,-70 38,-57 57,-82 131,-177 29,-36 66,-89 83,-117 16,-28 58,-89 92,-136 35,-46 76,-102 92,-125 43,-58 62,-53 116,28 38,57 127,184 152,217 4,6 27,38 50,72 24,34 66,95 95,135 29,40 75,105 103,145 82,117 80,127 80,-357 0,-305 3,-421 12,-426 22,-14 172,-11 196,3 l 22,13 v 750 c 0,767 -1,795 -37,744 -7,-10 -48,-66 -91,-124 -42,-58 -93,-130 -112,-160 -19,-30 -69,-100 -110,-155 -41,-55 -82,-110 -90,-122 -8,-12 -58,-82 -110,-155 -53,-73 -109,-153 -125,-178 -36,-56 -85,-110 -100,-110 -15,0 -56,45 -91,100 -16,24 -50,73 -77,108 -26,35 -56,80 -67,100 -11,20 -40,64 -65,97 -25,33 -62,84 -83,114 -20,29 -46,66 -57,81 -11,15 -44,63 -74,106 -30,44 -75,106 -101,139 -25,33 -61,83 -79,112 -35,56 -57,78 -64,66 z" id="path9" style="fill:#ffffff"/>
      <path d="m 27445,11933 c -33,-37 -86,-107 -97,-126 -6,-11 -30,-44 -53,-72 -23,-29 -59,-79 -81,-111 -21,-32 -65,-94 -97,-137 -33,-43 -79,-108 -103,-144 -25,-37 -63,-89 -85,-117 -22,-28 -70,-94 -107,-146 -98,-139 -115,-160 -126,-160 -10,0 -76,68 -76,79 0,4 -13,22 -30,41 -16,19 -29,38 -30,43 0,9 -63,99 -106,152 -18,22 -55,74 -83,115 -28,41 -72,105 -98,142 -27,37 -72,103 -102,145 -30,43 -69,96 -86,118 -18,22 -51,68 -75,103 -23,34 -48,62 -56,62 -12,0 -14,-111 -14,-750 0,-716 1,-750 18,-759 19,-10 178,-8 189,2 3,3 6,187 6,408 1,483 -4,471 112,304 22,-31 59,-83 83,-114 23,-31 62,-86 86,-122 24,-37 49,-70 55,-73 6,-4 27,-33 48,-64 54,-83 144,-202 154,-202 5,0 25,25 46,55 137,198 220,314 244,342 16,18 48,63 73,100 122,183 142,208 161,208 20,0 20,-9 23,-418 l 2,-418 25,-9 c 27,-10 193,-1 201,11 6,11 8,1518 1,1525 -3,3 -13,-3 -22,-13 z" id="path10" style="fill:#ffffff"/>
      <path d="m 39913,11924 c -103,-22 -187,-66 -249,-131 -85,-88 -98,-124 -99,-268 0,-101 3,-127 21,-166 46,-99 156,-184 331,-254 109,-44 196,-86 223,-109 8,-7 22,-15 30,-18 26,-9 71,-84 77,-127 8,-57 -13,-123 -54,-170 -89,-104 -334,-107 -521,-5 -34,19 -71,34 -81,34 -28,0 -108,-137 -98,-164 8,-20 128,-80 221,-110 92,-30 249,-50 330,-41 191,20 332,107 405,249 29,58 34,79 39,160 7,133 -28,231 -115,319 -40,42 -172,124 -213,133 -26,6 -131,50 -209,88 -46,22 -107,76 -136,120 -41,62 -10,173 65,232 67,54 211,57 357,8 40,-13 89,-34 109,-46 l 37,-22 20,25 c 30,38 76,134 69,145 -27,39 -190,100 -322,120 -113,17 -155,16 -237,-2 z" id="path11" style="fill:#ffffff"/>
      <path d="m 16411,11916 c -9,-11 -11,-153 -9,-558 l 3,-543 31,-70 c 61,-141 178,-257 312,-309 78,-31 217,-50 296,-42 122,14 245,64 340,139 82,65 154,192 177,310 5,26 9,278 9,559 1,406 -2,513 -12,520 -20,12 -196,10 -204,-3 -4,-7 -8,-240 -8,-518 -1,-598 2,-576 -102,-678 -52,-52 -74,-65 -130,-82 -161,-50 -339,2 -425,124 -53,74 -57,130 -59,664 0,266 -3,488 -6,492 -3,5 -49,9 -103,9 -73,0 -102,-4 -110,-14 z" id="path12" style="fill:#ffffff"/>
      <path d="m 21025,11908 c -3,-13 -4,-353 -3,-756 3,-620 5,-734 17,-742 24,-14 201,-5 212,11 14,23 12,1482 -3,1497 -8,8 -48,12 -115,12 -98,0 -103,-1 -108,-22 z" id="path13" style="fill:#ffffff"/>
      <path d="m 22338,11919 c -17,-9 -18,-55 -18,-740 0,-484 3,-737 10,-750 10,-17 22,-19 114,-19 86,0 105,3 110,16 3,9 6,149 6,313 0,218 3,300 12,309 17,17 729,17 746,0 9,-9 12,-92 12,-312 0,-166 4,-307 9,-315 10,-16 142,-21 194,-8 l 27,7 v 745 c 0,719 -1,745 -19,754 -25,14 -182,12 -198,-1 -10,-8 -13,-82 -13,-312 0,-222 -3,-305 -12,-314 -17,-17 -729,-17 -746,0 -9,9 -12,92 -12,313 0,221 -3,304 -12,313 -15,15 -185,16 -210,1 z" id="path14" style="fill:#ffffff"/>
      <path d="m 28552,11918 c -18,-18 -17,-1491 1,-1505 7,-6 51,-8 112,-4 l 100,6 3,749 c 2,593 0,751 -10,758 -21,13 -192,10 -206,-4 z" id="path15" style="fill:#ffffff"/>
      <path d="m 32151,11912 c -11,-21 -9,-171 3,-190 6,-10 46,-13 178,-10 160,3 170,2 184,-17 13,-17 15,-111 13,-644 -1,-561 1,-626 15,-636 18,-13 190,-14 203,-1 5,4 10,295 13,646 3,351 8,642 12,646 5,4 83,6 176,5 92,-1 175,1 185,4 14,6 17,21 17,99 0,58 -4,96 -12,104 -9,9 -133,12 -495,12 -452,0 -483,-1 -492,-18 z" id="path16" style="fill:#ffffff"/>
      <path d="m 34122,11918 c -18,-18 -17,-1491 1,-1505 13,-11 189,-9 206,2 17,10 15,1487 -1,1503 -8,8 -46,12 -103,12 -57,0 -95,-4 -103,-12 z" id="path17" style="fill:#ffffff"/>
      <path d="m 35422,11918 c -16,-16 -17,-1493 -1,-1504 22,-13 202,-10 216,4 10,11 13,76 13,298 v 285 l 46,49 c 26,28 55,50 64,50 10,0 33,-21 51,-46 19,-25 48,-62 64,-81 40,-48 91,-118 169,-233 61,-90 213,-291 239,-317 8,-7 62,-13 147,-15 121,-3 135,-1 135,14 0,9 -101,148 -225,308 -124,160 -253,330 -287,378 -34,48 -71,96 -82,108 -29,30 -26,57 12,101 48,56 337,363 450,477 55,57 96,106 95,115 -3,13 -23,17 -113,19 -61,2 -121,0 -134,-3 -22,-6 -228,-204 -262,-253 -9,-13 -83,-93 -165,-179 -82,-85 -153,-164 -158,-174 -10,-21 -46,-26 -47,-6 0,6 0,143 1,303 1,230 -1,293 -12,301 -18,16 -201,16 -216,1 z" id="path18" style="fill:#ffffff"/>
      <path d="m 41472,11922 c -10,-7 -13,-160 -13,-752 0,-409 4,-747 8,-751 13,-12 201,-15 213,-3 16,16 15,1495 -1,1505 -17,10 -191,11 -207,1 z" id="path19" style="fill:#ffffff"/>
    </g>
  </g>
</svg>